<svg xmlns="http://www.w3.org/2000/svg" viewBox="0 0 512 512" width="100%" height="100%">
  <defs>
    <!-- Vibrant orange gradient -->
    <linearGradient id="orangeGrad" x1="0%" y1="0%" x2="100%" y2="100%">
      <stop offset="0%" stop-color="#ff7a00" />
      <stop offset="100%" stop-color="#ff5100" />
    </linearGradient>
    <!-- Subtle drop shadow for depth -->
    <filter id="dropShadow" x="-10%" y="-10%" width="130%" height="130%">
      <feDropShadow dx="0" dy="12" stdDeviation="16" flood-color="#ff5100" flood-opacity="0.25"/>
    </filter>
  </defs>
  
  <!-- Outer glowing background circle -->
  <circle cx="256" cy="256" r="230" fill="url(#orangeGrad)" filter="url(#dropShadow)" />
  
  <!-- Cloud Icon Structure -->
  <path d="M380 230c0-44.2-35.8-80-80-80-7.8 0-15.3 1.1-22.5 3.2C261.3 118.8 227.1 96 186.7 96c-58.9 0-106.7 47.8-106.7 106.7 0 5.6.4 11 1.3 16.4C51.6 226.7 32 254.9 32 288c0 48.6 39.4 88 88 88h260c53 0 96-43 96-96 0-46.7-33.3-85.7-76-94z" fill="#ffffff" transform="scale(0.55) translate(210, 205)" />
  
  <!-- Lock Core inside Cloud -->
  <path d="M264 218h-8v-4c0-11-9-20-20-20s-20 9-20 20v4h-8c-6.6 0-12 5.4-12 12v44c0 6.6 5.4 12 12 12h48c6.6 0 12-5.4 12-12v-44c0-6.6-5.4-12-12-12zm-40 0v-4c0-6.6 5.4-12 12-12s12 5.4 12 12v4h-24z" fill="#ff5100" />
</svg>